<svg width="32" height="32" viewBox="0 0 32 32" fill="none" xmlns="http://www.w3.org/2000/svg">
<path d="M27.8534 17.3335V18.6668H26.6934C25.7067 18.6668 24.9067 19.4668 24.9067 20.4668V20.8668C24.9067 21.8668 24.1067 22.6668 23.1067 22.6668C22.1201 22.6668 21.3201 21.8668 21.3201 20.8668V20.4668C21.3201 19.4668 20.5067 18.6668 19.5201 18.6668C18.5334 18.6668 17.7334 19.4668 17.7334 20.4668V20.8668C17.7334 21.8668 16.9201 22.6668 15.9334 22.6668C14.9467 22.6668 14.1334 21.8668 14.1334 20.8668V20.4668C14.1334 19.4668 13.3334 18.6668 12.3467 18.6668C11.3601 18.6668 10.5467 19.4668 10.5467 20.4668V20.8668C10.5467 21.8668 9.74673 22.6668 8.76006 22.6668C7.76006 22.6668 6.96006 21.8668 6.96006 20.8668V20.4402C6.96006 19.4535 6.1734 18.6535 5.20006 18.6402H4.14673V17.3335C4.14673 15.4935 5.5334 13.9335 7.4134 13.4802C7.78673 13.3868 8.1734 13.3335 8.58673 13.3335H23.4134C23.8267 13.3335 24.2134 13.3868 24.5867 13.4802C26.4667 13.9335 27.8534 15.4935 27.8534 17.3335Z" fill="white"/>
<path d="M24.5867 9.55984V11.4398C24.2 11.3598 23.8133 11.3332 23.4133 11.3332H8.58666C8.18666 11.3332 7.8 11.3732 7.41333 11.4532V9.55984C7.41333 7.95984 8.85333 6.6665 10.64 6.6665H21.36C23.1467 6.6665 24.5867 7.95984 24.5867 9.55984Z" fill="white"/>
<path d="M11.6667 4.73337V6.68003H10.6401C10.2934 6.68003 9.97341 6.72003 9.66675 6.80003V4.73337C9.66675 4.2667 10.1201 3.8667 10.6667 3.8667C11.2134 3.8667 11.6667 4.2667 11.6667 4.73337Z" fill="white"/>
<path d="M22.3333 4.43994V6.79994C22.0266 6.70661 21.7066 6.66661 21.3599 6.66661H20.3333V4.43994C20.3333 3.89327 20.7866 3.43994 21.3333 3.43994C21.8799 3.43994 22.3333 3.89327 22.3333 4.43994Z" fill="white"/>
<path d="M17 3.75984V6.6665H15V3.75984C15 3.15984 15.4533 2.6665 16 2.6665C16.5467 2.6665 17 3.15984 17 3.75984Z" fill="white"/>
<path d="M29.3334 28.3335C29.3334 28.8801 28.8801 29.3335 28.3334 29.3335H3.66675C3.12008 29.3335 2.66675 28.8801 2.66675 28.3335C2.66675 27.7868 3.12008 27.3335 3.66675 27.3335H4.14675V20.6401H4.96008V20.7335C4.96008 22.5201 6.13341 24.1735 7.88008 24.5601C9.24008 24.8801 10.5334 24.4401 11.4134 23.5735C11.9201 23.0668 12.7467 23.0535 13.2534 23.5601C13.9467 24.2401 14.8934 24.6668 15.9334 24.6668C16.9734 24.6668 17.9201 24.2535 18.6134 23.5601C19.1201 23.0668 19.9334 23.0668 20.4534 23.5735C21.3201 24.4401 22.6134 24.8801 23.9867 24.5601C25.7334 24.1735 26.9067 22.5201 26.9067 20.7335V20.6668H27.8534V27.3335H28.3334C28.8801 27.3335 29.3334 27.7868 29.3334 28.3335Z" fill="white"/>
</svg>
