<svg width="32" height="32" viewBox="0 0 32 32" fill="none" xmlns="http://www.w3.org/2000/svg">
<path d="M8 6.8265C7.45333 6.8265 7 6.37316 7 5.8265V3.49316C7 2.9465 7.45333 2.49316 8 2.49316C8.54667 2.49316 9 2.9465 9 3.49316V5.8265C9 6.3865 8.54667 6.8265 8 6.8265Z" fill="white"/>
<path d="M13.3333 6.8265C12.7866 6.8265 12.3333 6.37316 12.3333 5.8265V3.49316C12.3333 2.9465 12.7866 2.49316 13.3333 2.49316C13.8799 2.49316 14.3333 2.9465 14.3333 3.49316V5.8265C14.3333 6.3865 13.8799 6.8265 13.3333 6.8265Z" fill="white"/>
<path d="M18.6667 6.8265C18.1201 6.8265 17.6667 6.37316 17.6667 5.8265V3.49316C17.6667 2.9465 18.1201 2.49316 18.6667 2.49316C19.2134 2.49316 19.6667 2.9465 19.6667 3.49316V5.8265C19.6667 6.3865 19.2134 6.8265 18.6667 6.8265Z" fill="white"/>
<path d="M29.6666 17.6667C29.6666 14.1733 26.9599 11.3467 23.5466 11.0533C22.5599 9.44001 20.7999 8.34668 18.7733 8.34668H8.94659C5.85325 8.34668 3.33325 10.8667 3.33325 13.96V14.6667H24.3866V13.96C24.3866 13.7067 24.3466 13.4533 24.3066 13.2133C26.2399 13.7867 27.6666 15.5467 27.6666 17.6667C27.6666 19.76 26.2799 21.5067 24.3866 22.0933V16H3.33325V23.72C3.33325 26.8133 5.85325 29.3333 8.94659 29.3333H18.7733C21.7066 29.3333 24.0933 27.0667 24.3333 24.1867C27.3733 23.5733 29.6666 20.88 29.6666 17.6667Z" fill="white"/>
</svg>
