<svg width="32" height="32" viewBox="0 0 32 32" fill="none" xmlns="http://www.w3.org/2000/svg">
<path d="M21.3333 2.6665H10.6667C6 2.6665 4 5.33317 4 9.33317V15.2932C4 15.7598 4.45333 16.0798 4.88 15.9198C6.34667 15.3465 8.01333 15.1598 9.73333 15.5065C13.2 16.1998 15.96 19.0532 16.5333 22.5332C16.88 24.6532 16.4533 26.6665 15.48 28.3332C15.2133 28.7732 15.5333 29.3332 16.0533 29.3332H21.3333C26 29.3332 28 26.6665 28 22.6665V9.33317C28 5.33317 26 2.6665 21.3333 2.6665ZM24.6667 12.3332H22C19.9733 12.3332 18.3333 10.6932 18.3333 8.6665V5.99984C18.3333 5.45317 18.7867 4.99984 19.3333 4.99984C19.88 4.99984 20.3333 5.45317 20.3333 5.99984V8.6665C20.3333 9.5865 21.08 10.3332 22 10.3332H24.6667C25.2133 10.3332 25.6667 10.7865 25.6667 11.3332C25.6667 11.8798 25.2133 12.3332 24.6667 12.3332Z" fill="white"/>
<path d="M7.99992 17.3335C4.31992 17.3335 1.33325 20.3202 1.33325 24.0002C1.33325 27.6802 4.31992 30.6668 7.99992 30.6668C11.6799 30.6668 14.6666 27.6802 14.6666 24.0002C14.6666 20.3202 11.6799 17.3335 7.99992 17.3335ZM6.87992 25.6935C7.21325 26.0268 7.21325 26.5735 6.87992 26.9202C6.70658 27.0935 6.49325 27.1735 6.26658 27.1735C6.03992 27.1735 5.82658 27.0935 5.65325 26.9202L3.34659 24.6135C3.01325 24.2802 3.01325 23.7335 3.34659 23.3868L5.65325 21.0802C5.98658 20.7468 6.53325 20.7468 6.87992 21.0802C7.21325 21.4135 7.21325 21.9602 6.87992 22.3068L5.18659 24.0002L6.87992 25.6935ZM12.6399 24.6135L10.3333 26.9202C10.1599 27.0935 9.94658 27.1735 9.71992 27.1735C9.49325 27.1735 9.27992 27.0935 9.10658 26.9202C8.77325 26.5868 8.77325 26.0402 9.10658 25.6935L10.8133 24.0002L9.11992 22.3068C8.78658 21.9735 8.78658 21.4268 9.11992 21.0802C9.45325 20.7468 9.99992 20.7468 10.3466 21.0802L12.6533 23.3868C12.9733 23.7335 12.9733 24.2668 12.6399 24.6135Z" fill="white"/>
</svg>
