<svg width="32" height="32" viewBox="0 0 32 32" fill="none" xmlns="http://www.w3.org/2000/svg">
<path d="M25.4932 12.1598C24.9732 12.1598 24.5599 12.5732 24.5599 13.0932V15.1998C24.5599 19.9198 20.7199 23.7598 15.9999 23.7598C11.2799 23.7598 7.43991 19.9198 7.43991 15.1998V13.0798C7.43991 12.5598 7.02658 12.1465 6.50658 12.1465C5.98658 12.1465 5.57324 12.5598 5.57324 13.0798V15.1865C5.57324 20.6132 9.74658 25.0798 15.0666 25.5598V28.3998C15.0666 28.9198 15.4799 29.3332 15.9999 29.3332C16.5199 29.3332 16.9332 28.9198 16.9332 28.3998V25.5598C22.2399 25.0932 26.4266 20.6132 26.4266 15.1865V13.0798C26.4132 12.5732 25.9999 12.1598 25.4932 12.1598Z" fill="white"/>
<path d="M16 2.6665C12.7467 2.6665 10.1067 5.3065 10.1067 8.55984V15.3865C10.1067 18.6398 12.7467 21.2798 16 21.2798C19.2534 21.2798 21.8934 18.6398 21.8934 15.3865V8.55984C21.8934 5.3065 19.2534 2.6665 16 2.6665ZM17.7467 11.9332C17.6534 12.2798 17.3467 12.5065 17 12.5065C16.9334 12.5065 16.8667 12.4932 16.8 12.4798C16.28 12.3332 15.7334 12.3332 15.2134 12.4798C14.7867 12.5998 14.3734 12.3465 14.2667 11.9332C14.1467 11.5198 14.4 11.0932 14.8134 10.9865C15.6 10.7732 16.4267 10.7732 17.2134 10.9865C17.6134 11.0932 17.8534 11.5198 17.7467 11.9332ZM18.4534 9.3465C18.3334 9.6665 18.04 9.85317 17.72 9.85317C17.6267 9.85317 17.5467 9.83984 17.4534 9.81317C16.52 9.4665 15.48 9.4665 14.5467 9.81317C14.1467 9.95984 13.6934 9.7465 13.5467 9.3465C13.4 8.9465 13.6134 8.49317 14.0134 8.35984C15.2934 7.89317 16.7067 7.89317 17.9867 8.35984C18.3867 8.5065 18.6 8.9465 18.4534 9.3465Z" fill="white"/>
</svg>
