<svg width="32" height="32" viewBox="0 0 32 32" fill="none" xmlns="http://www.w3.org/2000/svg">
<path d="M24.7201 5.49329L17.3867 2.74662C16.6267 2.46662 15.3867 2.46662 14.6267 2.74662L7.2934 5.49329C5.88006 6.02662 4.7334 7.67995 4.7334 9.18662V19.9866C4.7334 21.0666 5.44007 22.4933 6.30673 23.1333L13.6401 28.6133C14.9334 29.5866 17.0534 29.5866 18.3467 28.6133L25.6801 23.1333C26.5467 22.48 27.2534 21.0666 27.2534 19.9866V9.18662C27.2667 7.67995 26.1201 6.02662 24.7201 5.49329ZM20.6401 12.96L14.9067 18.6933C14.7067 18.8933 14.4534 18.9866 14.2001 18.9866C13.9467 18.9866 13.6934 18.8933 13.4934 18.6933L11.3601 16.5333C10.9734 16.1466 10.9734 15.5066 11.3601 15.12C11.7467 14.7333 12.3867 14.7333 12.7734 15.12L14.2134 16.56L19.2401 11.5333C19.6267 11.1466 20.2667 11.1466 20.6534 11.5333C21.0401 11.92 21.0401 12.5733 20.6401 12.96Z" fill="white"/>
</svg>
