<svg width="32" height="32" viewBox="0 0 32 32" fill="none" xmlns="http://www.w3.org/2000/svg">
<path d="M21.5868 2.6665H10.4134C5.56008 2.6665 2.66675 5.55984 2.66675 10.4132V21.5732C2.66675 26.4398 5.56008 29.3332 10.4134 29.3332H21.5734C26.4268 29.3332 29.3201 26.4398 29.3201 21.5865V10.4132C29.3334 5.55984 26.4401 2.6665 21.5868 2.6665ZM13.2534 17.6932C12.3467 19.0532 11.0934 20.1598 9.62675 20.8932C9.49341 20.9598 9.33341 20.9998 9.18675 20.9998C8.81341 20.9998 8.46675 20.7998 8.29341 20.4532C8.04008 19.9598 8.24008 19.3598 8.74675 19.1065C9.90675 18.5332 10.8934 17.6532 11.6001 16.5865C11.8401 16.2265 11.8401 15.7732 11.6001 15.4132C10.8801 14.3465 9.89341 13.4665 8.74675 12.8932C8.24008 12.6532 8.04008 12.0532 8.29341 11.5465C8.53341 11.0532 9.13341 10.8532 9.62675 11.1065C11.0934 11.8398 12.3467 12.9465 13.2534 14.3065C13.9467 15.3332 13.9467 16.6665 13.2534 17.6932ZM22.6667 20.9998H17.3334C16.7867 20.9998 16.3334 20.5465 16.3334 19.9998C16.3334 19.4532 16.7867 18.9998 17.3334 18.9998H22.6667C23.2134 18.9998 23.6667 19.4532 23.6667 19.9998C23.6667 20.5465 23.2134 20.9998 22.6667 20.9998Z" fill="white"/>
</svg>
