<svg width="32" height="32" viewBox="0 0 32 32" fill="none" xmlns="http://www.w3.org/2000/svg">
<path d="M21.3333 2.66666H10.6667C6 2.66666 4 5.33332 4 9.33332V15.2933C4 15.76 4.45333 16.08 4.88 15.92C6.34667 15.3467 8.01333 15.16 9.73333 15.5067C13.2 16.2 15.96 19.0533 16.5333 22.5333C16.88 24.6533 16.4533 26.6667 15.48 28.3333C15.2133 28.7733 15.5333 29.3333 16.0533 29.3333H21.3333C26 29.3333 28 26.6667 28 22.6667V9.33332C28 5.33332 26 2.66666 21.3333 2.66666ZM24.6667 12.3333H22C19.9733 12.3333 18.3333 10.6933 18.3333 8.66666V5.99999C18.3333 5.45332 18.7867 4.99999 19.3333 4.99999C19.88 4.99999 20.3333 5.45332 20.3333 5.99999V8.66666C20.3333 9.58666 21.08 10.3333 22 10.3333H24.6667C25.2133 10.3333 25.6667 10.7867 25.6667 11.3333C25.6667 11.88 25.2133 12.3333 24.6667 12.3333Z" fill="white"/>
<path d="M7.99992 17.3333C4.31992 17.3333 1.33325 20.32 1.33325 24C1.33325 27.68 4.31992 30.6667 7.99992 30.6667C11.6799 30.6667 14.6666 27.68 14.6666 24C14.6666 20.32 11.6799 17.3333 7.99992 17.3333ZM6.87992 25.6933C7.21325 26.0267 7.21325 26.5733 6.87992 26.92C6.70658 27.0933 6.49325 27.1733 6.26658 27.1733C6.03992 27.1733 5.82658 27.0933 5.65325 26.92L3.34659 24.6133C3.01325 24.28 3.01325 23.7333 3.34659 23.3867L5.65325 21.08C5.98658 20.7467 6.53325 20.7467 6.87992 21.08C7.21325 21.4133 7.21325 21.96 6.87992 22.3067L5.18659 24L6.87992 25.6933ZM12.6399 24.6133L10.3333 26.92C10.1599 27.0933 9.94658 27.1733 9.71992 27.1733C9.49325 27.1733 9.27992 27.0933 9.10658 26.92C8.77325 26.5867 8.77325 26.04 9.10658 25.6933L10.8133 24L9.11992 22.3067C8.78658 21.9733 8.78658 21.4267 9.11992 21.08C9.45325 20.7467 9.99992 20.7467 10.3466 21.08L12.6533 23.3867C12.9733 23.7333 12.9733 24.2667 12.6399 24.6133Z" fill="white"/>
</svg>
