<svg width="32" height="32" viewBox="0 0 32 32" fill="none" xmlns="http://www.w3.org/2000/svg">
<path d="M11.1868 24.6535V11.1068C11.1868 10.5735 11.3468 10.0535 11.6401 9.61346L15.2801 4.20013C15.8534 3.33346 17.2801 2.72013 18.4934 3.17346C19.8001 3.61346 20.6668 5.08013 20.3868 6.3868L19.6934 10.7468C19.6401 11.1468 19.7468 11.5068 19.9734 11.7868C20.2001 12.0401 20.5334 12.2001 20.8934 12.2001H26.3734C27.4268 12.2001 28.3334 12.6268 28.8668 13.3735C29.3734 14.0935 29.4668 15.0268 29.1334 15.9735L25.8534 25.9601C25.4401 27.6135 23.6401 28.9601 21.8534 28.9601H16.6534C15.7601 28.9601 14.5068 28.6535 13.9334 28.0801L12.2268 26.7601C11.5734 26.2668 11.1868 25.4801 11.1868 24.6535Z" fill="white"/>
<path d="M6.94675 8.50684H5.57341C3.50675 8.50684 2.66675 9.30684 2.66675 11.2802V24.6935C2.66675 26.6668 3.50675 27.4668 5.57341 27.4668H6.94675C9.01341 27.4668 9.85341 26.6668 9.85341 24.6935V11.2802C9.85341 9.30684 9.01341 8.50684 6.94675 8.50684Z" fill="white"/>
</svg>
