<svg width="32" height="32" viewBox="0 0 32 32" fill="none" xmlns="http://www.w3.org/2000/svg">
<path d="M13.4399 15.7734H15.6399L15.8933 13.5601H13.6933L13.4399 15.7734Z" fill="white"/>
<path d="M29.2934 9.61317C29.0267 5.5065 26.4934 2.97317 22.3867 2.7065C22.1201 2.67984 21.8534 2.6665 21.5867 2.6665H10.4134C10.1467 2.6665 9.88008 2.67984 9.61341 2.7065C5.50675 2.97317 2.97341 5.5065 2.70675 9.61317C2.68008 9.87984 2.66675 10.1465 2.66675 10.4132V21.5865C2.66675 21.8532 2.68008 22.1198 2.70675 22.3865C2.97341 26.4932 5.50675 29.0265 9.61341 29.2932C9.88008 29.3198 10.1467 29.3332 10.4134 29.3332H18.0001C18.7334 29.3332 19.3334 28.7332 19.3334 27.9998V24.0398C19.3334 21.4398 21.4401 19.3332 24.0401 19.3332H28.0001C28.7334 19.3332 29.3334 18.7332 29.3334 17.9998V10.4132C29.3334 10.1465 29.3201 9.87984 29.2934 9.61317ZM21.3334 13.5598H17.9067L17.6534 15.7732H20.6267C21.1867 15.7732 21.6267 16.2265 21.6267 16.7732C21.6267 17.3198 21.1867 17.7732 20.6267 17.7732H17.4401L17.0667 21.0932C17.0134 21.5998 16.5734 21.9865 16.0667 21.9865C16.0401 21.9865 16.0001 21.9865 15.9601 21.9732C15.4134 21.9198 15.0134 21.4265 15.0801 20.8665L15.4267 17.7732H13.2267L12.8534 21.0932C12.8001 21.5998 12.3601 21.9865 11.8667 21.9865C11.8267 21.9865 11.7867 21.9865 11.7467 21.9732C11.2001 21.9198 10.8001 21.4265 10.8667 20.8665L11.2134 17.7732H8.00008C7.45341 17.7732 7.00008 17.3198 7.00008 16.7732C7.00008 16.2265 7.45341 15.7732 8.00008 15.7732H11.4267L11.6801 13.5598H8.70675C8.14675 13.5598 7.70675 13.1065 7.70675 12.5598C7.70675 12.0132 8.14675 11.5598 8.70675 11.5598H11.8934L12.2667 8.23984C12.3334 7.69317 12.8267 7.29317 13.3734 7.35984C13.9201 7.41317 14.3201 7.9065 14.2534 8.4665L13.9067 11.5598H16.1067L16.4801 8.23984C16.5467 7.69317 17.0401 7.29317 17.5867 7.35984C18.1334 7.41317 18.5334 7.9065 18.4667 8.4665L18.1201 11.5598H21.3334C21.8801 11.5598 22.3334 12.0132 22.3334 12.5598C22.3334 13.1065 21.8801 13.5598 21.3334 13.5598Z" fill="white"/>
<path d="M27.9599 21.3335H24.0399C22.3466 21.3335 21.3333 22.3468 21.3333 24.0402V27.9602C21.3333 29.6535 22.3466 30.6668 24.0399 30.6668H27.9599C29.6533 30.6668 30.6666 29.6535 30.6666 27.9602V24.0402C30.6666 22.3468 29.6533 21.3335 27.9599 21.3335ZM28.2533 25.7468C28.0933 25.9068 27.8799 25.9868 27.6666 25.9868C27.4533 25.9868 27.2399 25.9068 27.0799 25.7468L26.8399 25.5068V28.4935C26.8399 28.9602 26.4666 29.3335 25.9999 29.3335C25.5333 29.3335 25.1599 28.9602 25.1599 28.4935V25.5068L24.9199 25.7468C24.5999 26.0668 24.0666 26.0668 23.7466 25.7468C23.4266 25.4268 23.4266 24.8935 23.7466 24.5735L25.4133 22.9068C25.4799 22.8402 25.5733 22.7868 25.6666 22.7468C25.6933 22.7335 25.7199 22.7335 25.7466 22.7202C25.8133 22.6935 25.8799 22.6802 25.9599 22.6802C25.9866 22.6802 26.0133 22.6802 26.0399 22.6802C26.1333 22.6802 26.2133 22.6935 26.3066 22.7335C26.3199 22.7335 26.3199 22.7335 26.3333 22.7335C26.4266 22.7735 26.5066 22.8268 26.5733 22.8935C26.5866 22.9068 26.5866 22.9068 26.5999 22.9068L28.2666 24.5735C28.5866 24.8935 28.5866 25.4268 28.2533 25.7468Z" fill="white"/>
</svg>
