<svg width="32" height="32" viewBox="0 0 32 32" fill="none" xmlns="http://www.w3.org/2000/svg">
<path d="M4 22C3.45333 22 3 21.5467 3 21V11C3 10.4533 3.45333 10 4 10C4.54667 10 5 10.4533 5 11V21C5 21.5467 4.54667 22 4 22Z" fill="white"/>
<path d="M10 25.3333C9.45333 25.3333 9 24.88 9 24.3333V7.66666C9 7.11999 9.45333 6.66666 10 6.66666C10.5467 6.66666 11 7.11999 11 7.66666V24.3333C11 24.88 10.5467 25.3333 10 25.3333Z" fill="white"/>
<path d="M16 28.6667C15.4533 28.6667 15 28.2133 15 27.6667V4.33334C15 3.78668 15.4533 3.33334 16 3.33334C16.5467 3.33334 17 3.78668 17 4.33334V27.6667C17 28.2133 16.5467 28.6667 16 28.6667Z" fill="white"/>
<path d="M22 25.3333C21.4533 25.3333 21 24.88 21 24.3333V7.66666C21 7.11999 21.4533 6.66666 22 6.66666C22.5467 6.66666 23 7.11999 23 7.66666V24.3333C23 24.88 22.5467 25.3333 22 25.3333Z" fill="white"/>
<path d="M28 22C27.4533 22 27 21.5467 27 21V11C27 10.4533 27.4533 10 28 10C28.5467 10 29 10.4533 29 11V21C29 21.5467 28.5467 22 28 22Z" fill="white"/>
</svg>
