<svg width="32" height="32" viewBox="0 0 32 32" fill="none" xmlns="http://www.w3.org/2000/svg">
<path d="M12.0001 2.66666C8.50675 2.66666 5.66675 5.50666 5.66675 8.99999C5.66675 12.4267 8.34675 15.2 11.8401 15.32C11.9467 15.3067 12.0534 15.3067 12.1334 15.32C12.1601 15.32 12.1734 15.32 12.2001 15.32C12.2134 15.32 12.2134 15.32 12.2267 15.32C15.6401 15.2 18.3201 12.4267 18.3334 8.99999C18.3334 5.50666 15.4934 2.66666 12.0001 2.66666Z" fill="white"/>
<path d="M18.7733 18.8667C15.0533 16.3867 8.98661 16.3867 5.23995 18.8667C3.54661 20 2.61328 21.5333 2.61328 23.1733C2.61328 24.8133 3.54661 26.3333 5.22661 27.4533C7.09328 28.7067 9.54661 29.3333 11.9999 29.3333C14.4533 29.3333 16.9066 28.7067 18.7733 27.4533C20.4533 26.32 21.3866 24.8 21.3866 23.1467C21.3733 21.5067 20.4533 19.9867 18.7733 18.8667Z" fill="white"/>
<path d="M26.6532 9.78667C26.8666 12.3733 25.0266 14.64 22.4799 14.9467C22.4666 14.9467 22.4666 14.9467 22.4532 14.9467H22.4132C22.3332 14.9467 22.2532 14.9467 22.1866 14.9733C20.8932 15.04 19.7066 14.6267 18.8132 13.8667C20.1866 12.64 20.9732 10.8 20.8132 8.8C20.7199 7.72 20.3466 6.73333 19.7866 5.89333C20.2932 5.64 20.8799 5.48 21.4799 5.42667C24.0932 5.2 26.4266 7.14667 26.6532 9.78667Z" fill="white"/>
<path d="M29.32 22.12C29.2133 23.4133 28.3867 24.5333 27 25.2933C25.6667 26.0267 23.9867 26.3733 22.32 26.3333C23.28 25.4667 23.84 24.3867 23.9467 23.24C24.08 21.5867 23.2933 20 21.72 18.7333C20.8267 18.0267 19.7867 17.4667 18.6533 17.0533C21.6 16.2 25.3067 16.7733 27.5867 18.6133C28.8133 19.6 29.44 20.84 29.32 22.12Z" fill="white"/>
</svg>
