<svg width="97" height="96" viewBox="0 0 97 96" fill="none" xmlns="http://www.w3.org/2000/svg">
<path d="M0.944824 33.8388C0.944824 17.887 0.944824 9.91116 5.9004 4.95558C10.856 0 18.8319 0 34.7836 0H62.2777C78.2294 0 86.2053 0 91.1609 4.95558C96.1165 9.91116 96.1165 17.887 96.1165 33.8388V61.3328C96.1165 77.2846 96.1165 85.2605 91.1609 90.216C86.2053 95.1716 78.2294 95.1716 62.2777 95.1716H34.7836C18.8319 95.1716 10.856 95.1716 5.9004 90.216C0.944824 85.2605 0.944824 77.2846 0.944824 61.3328V33.8388Z" fill="white"/>
<path d="M5.9004 90.216L5.52653 90.5899L5.9004 90.216ZM91.1609 90.216L91.5347 90.5899L91.1609 90.216ZM91.1609 4.95558L91.5347 4.58171L91.1609 4.95558ZM5.9004 4.95558L5.52653 4.58171L5.9004 4.95558ZM34.7836 0.528731H62.2777V-0.528731H34.7836V0.528731ZM95.5877 33.8388V61.3328H96.6452V33.8388H95.5877ZM62.2777 94.6429H34.7836V95.7004H62.2777V94.6429ZM1.47356 61.3328V33.8388H0.416093V61.3328H1.47356ZM34.7836 94.6429C26.7928 94.6429 20.8529 94.6418 16.2889 94.0282C11.7401 93.4166 8.63745 92.2054 6.27427 89.8422L5.52653 90.5899C8.11893 93.1823 11.482 94.4489 16.148 95.0762C20.7988 95.7015 26.8227 95.7004 34.7836 95.7004V94.6429ZM0.416093 61.3328C0.416093 69.2938 0.41497 75.3177 1.04025 79.9685C1.66758 84.6345 2.93413 87.9975 5.52653 90.5899L6.27427 89.8422C3.9111 87.479 2.69985 84.3763 2.08829 79.8276C1.47468 75.2636 1.47356 69.3237 1.47356 61.3328H0.416093ZM95.5877 61.3328C95.5877 69.3237 95.5866 75.2636 94.973 79.8276C94.3614 84.3763 93.1502 87.479 90.787 89.8422L91.5347 90.5899C94.1272 87.9975 95.3937 84.6345 96.021 79.9685C96.6463 75.3177 96.6452 69.2938 96.6452 61.3328H95.5877ZM62.2777 95.7004C70.2386 95.7004 76.2625 95.7015 80.9133 95.0762C85.5793 94.4489 88.9423 93.1823 91.5347 90.5899L90.787 89.8422C88.4238 92.2054 85.3211 93.4166 80.7724 94.0282C76.2084 94.6418 70.2685 94.6429 62.2777 94.6429V95.7004ZM62.2777 0.528731C70.2685 0.528731 76.2084 0.529854 80.7724 1.14346C85.3211 1.75503 88.4238 2.96627 90.787 5.32945L91.5347 4.58171C88.9423 1.98931 85.5793 0.722761 80.9133 0.0954308C76.2625 -0.529854 70.2386 -0.528731 62.2777 -0.528731V0.528731ZM96.6452 33.8388C96.6452 25.8779 96.6463 19.854 96.021 15.2032C95.3937 10.5371 94.1272 7.17411 91.5347 4.58171L90.787 5.32945C93.1502 7.69262 94.3614 10.7953 94.973 15.3441C95.5866 19.908 95.5877 25.848 95.5877 33.8388H96.6452ZM34.7836 -0.528731C26.8227 -0.528731 20.7988 -0.529854 16.148 0.0954308C11.482 0.722761 8.11893 1.98931 5.52653 4.58171L6.27427 5.32945C8.63745 2.96627 11.7401 1.75503 16.2889 1.14346C20.8529 0.529854 26.7928 0.528731 34.7836 0.528731V-0.528731ZM1.47356 33.8388C1.47356 25.848 1.47468 19.908 2.08829 15.3441C2.69985 10.7953 3.9111 7.69262 6.27427 5.32945L5.52653 4.58171C2.93413 7.17411 1.66758 10.5371 1.04025 15.2032C0.41497 19.854 0.416093 25.8779 0.416093 33.8388H1.47356Z" fill="#D9D9D9"/>
<path d="M39.7736 74.0223C44.6379 74.0223 48.5858 70.0744 48.5858 65.2101V56.3979H39.7736C34.9093 56.3979 30.9614 60.3458 30.9614 65.2101C30.9614 70.0744 34.9093 74.0223 39.7736 74.0223Z" fill="#0ACF83"/>
<path d="M30.9614 47.5856C30.9614 42.7213 34.9093 38.7734 39.7736 38.7734H48.5858V56.3978H39.7736C34.9093 56.3978 30.9614 52.4499 30.9614 47.5856Z" fill="#A259FF"/>
<path d="M30.9614 29.9616C30.9614 25.0973 34.9093 21.1494 39.7736 21.1494H48.5858V38.7738H39.7736C34.9093 38.7738 30.9614 34.8259 30.9614 29.9616Z" fill="#F24E1E"/>
<path d="M48.5859 21.1494H57.3981C62.2625 21.1494 66.2103 25.0973 66.2103 29.9616C66.2103 34.8259 62.2625 38.7738 57.3981 38.7738H48.5859V21.1494Z" fill="#FF7262"/>
<path d="M66.2103 47.5856C66.2103 52.4499 62.2625 56.3978 57.3981 56.3978C52.5338 56.3978 48.5859 52.4499 48.5859 47.5856C48.5859 42.7213 52.5338 38.7734 57.3981 38.7734C62.2625 38.7734 66.2103 42.7213 66.2103 47.5856Z" fill="#1ABCFE"/>
</svg>
