<svg width="70" height="70" viewBox="0 0 70 70" fill="none" xmlns="http://www.w3.org/2000/svg">
<g filter="url(#filter0_f_80_1002)">
<path d="M3.06006 25.5426C3.06006 14.9831 3.06006 9.70339 6.34046 6.42298C9.62087 3.14258 14.9006 3.14258 25.4601 3.14258H43.6601C54.2195 3.14258 59.4993 3.14258 62.7797 6.42298C66.0601 9.70339 66.0601 14.9831 66.0601 25.5426V43.7426C66.0601 54.302 66.0601 59.5818 62.7797 62.8622C59.4993 66.1426 54.2195 66.1426 43.6601 66.1426H25.4601C14.9006 66.1426 9.62087 66.1426 6.34046 62.8622C3.06006 59.5818 3.06006 54.302 3.06006 43.7426V25.5426Z" fill="white"/>
<path d="M6.34046 62.8622L6.58795 62.6147L6.34046 62.8622ZM62.7797 62.8622L62.5322 62.6147L62.7797 62.8622ZM62.7797 6.42298L62.5322 6.67047L62.7797 6.42298ZM6.34046 6.42298L6.09298 6.17549L6.34046 6.42298ZM25.4601 3.49258H43.6601V2.79258H25.4601V3.49258ZM65.7101 25.5426V43.7426H66.4101V25.5426H65.7101ZM43.6601 65.7926H25.4601V66.4926H43.6601V65.7926ZM3.41006 43.7426V25.5426H2.71006V43.7426H3.41006ZM25.4601 65.7926C20.1704 65.7926 16.2384 65.7918 13.2173 65.3857C10.2061 64.9808 8.15228 64.179 6.58795 62.6147L6.09298 63.1097C7.80905 64.8257 10.0353 65.6641 13.124 66.0794C16.2026 66.4933 20.1902 66.4926 25.4601 66.4926V65.7926ZM2.71006 43.7426C2.71006 49.0124 2.70932 53 3.12323 56.0787C3.5385 59.1674 4.3769 61.3936 6.09298 63.1097L6.58795 62.6147C5.02362 61.0504 4.22182 58.9965 3.81699 55.9854C3.4108 52.9642 3.41006 49.0322 3.41006 43.7426H2.71006ZM65.7101 43.7426C65.7101 49.0322 65.7093 52.9642 65.3031 55.9854C64.8983 58.9965 64.0965 61.0504 62.5322 62.6147L63.0271 63.1097C64.7432 61.3936 65.5816 59.1674 65.9969 56.0787C66.4108 53 66.4101 49.0124 66.4101 43.7426H65.7101ZM43.6601 66.4926C48.9299 66.4926 52.9175 66.4933 55.9961 66.0794C59.0849 65.6641 61.3111 64.8257 63.0271 63.1097L62.5322 62.6147C60.9678 64.179 58.914 64.9808 55.9029 65.3857C52.8817 65.7918 48.9497 65.7926 43.6601 65.7926V66.4926ZM43.6601 3.49258C48.9497 3.49258 52.8817 3.49332 55.9029 3.89951C58.914 4.30434 60.9678 5.10614 62.5322 6.67047L63.0271 6.17549C61.3111 4.45942 59.0849 3.62102 55.9961 3.20575C52.9175 2.79183 48.9299 2.79258 43.6601 2.79258V3.49258ZM66.4101 25.5426C66.4101 20.2727 66.4108 16.2852 65.9969 13.2065C65.5816 10.1178 64.7432 7.89157 63.0271 6.17549L62.5322 6.67047C64.0965 8.2348 64.8983 10.2887 65.3031 13.2998C65.7093 16.3209 65.7101 20.253 65.7101 25.5426H66.4101ZM25.4601 2.79258C20.1902 2.79258 16.2026 2.79183 13.124 3.20575C10.0353 3.62102 7.80905 4.45942 6.09298 6.17549L6.58795 6.67047C8.15228 5.10614 10.2061 4.30434 13.2173 3.89951C16.2384 3.49332 20.1704 3.49258 25.4601 3.49258V2.79258ZM3.41006 25.5426C3.41006 20.253 3.4108 16.3209 3.81699 13.2998C4.22182 10.2887 5.02362 8.2348 6.58795 6.67047L6.09298 6.17549C4.3769 7.89157 3.5385 10.1178 3.12323 13.2065C2.70932 16.2852 2.71006 20.2727 2.71006 25.5426H3.41006Z" fill="#D9D9D9"/>
<path d="M52.778 17.2222H17.2224V52.7777H52.778V17.2222Z" fill="#F7DF1E"/>
<path d="M41.1062 45C41.8224 46.1694 42.7542 47.0289 44.4022 47.0289C45.7866 47.0289 46.6709 46.337 46.6709 45.3809C46.6709 44.2352 45.7623 43.8295 44.2385 43.1629L43.4032 42.8046C40.9922 41.7774 39.3905 40.4906 39.3905 37.7703C39.3905 35.2645 41.2998 33.3569 44.2836 33.3569C46.4079 33.3569 47.9351 34.0963 49.0357 36.0321L46.4339 37.7026C45.8611 36.6755 45.2431 36.2708 44.2836 36.2708C43.305 36.2708 42.6848 36.8916 42.6848 37.7026C42.6848 38.7049 43.3056 39.1107 44.7391 39.7315L45.5744 40.0893C48.4132 41.3067 50.016 42.5478 50.016 45.338C50.016 48.3461 47.6529 49.9941 44.4795 49.9941C41.3765 49.9941 39.3719 48.5155 38.391 46.5774L41.1062 45ZM29.3035 45.2895C29.8283 46.2207 30.3058 47.008 31.4537 47.008C32.5514 47.008 33.2439 46.5785 33.2439 44.9085V33.5477H36.585V44.9537C36.585 48.4133 34.5566 49.9879 31.5959 49.9879C28.9208 49.9879 27.3716 48.6035 26.5837 46.9361L29.3035 45.2895Z" fill="black"/>
</g>
<defs>
<filter id="filter0_f_80_1002" x="0" y="0" width="70" height="70" filterUnits="userSpaceOnUse" color-interpolation-filters="sRGB">
<feFlood flood-opacity="0" result="BackgroundImageFix"/>
<feBlend mode="normal" in="SourceGraphic" in2="BackgroundImageFix" result="shape"/>
<feGaussianBlur stdDeviation="1.5" result="effect1_foregroundBlur_80_1002"/>
</filter>
</defs>
</svg>
