<svg width="92" height="92" viewBox="0 0 92 92" fill="none" xmlns="http://www.w3.org/2000/svg">
<g filter="url(#filter0_d_80_1003)">
<path d="M14.8672 35.5044C14.8672 24.9625 14.8672 19.6915 18.1422 16.4166C21.4171 13.1416 26.6881 13.1416 37.23 13.1416H55.3998C65.9418 13.1416 71.2128 13.1416 74.4877 16.4166C77.7627 19.6915 77.7627 24.9625 77.7627 35.5044V53.6743C77.7627 64.2162 77.7627 69.4872 74.4877 72.7621C71.2128 76.0371 65.9418 76.0371 55.3998 76.0371H37.23C26.6881 76.0371 21.4171 76.0371 18.1422 72.7621C14.8672 69.4872 14.8672 64.2162 14.8672 53.6743V35.5044Z" fill="white"/>
<path d="M18.1422 72.7621L18.3892 72.5151L18.1422 72.7621ZM74.4877 72.7621L74.2407 72.5151L74.4877 72.7621ZM74.4877 16.4166L74.2407 16.6636L74.4877 16.4166ZM18.1422 16.4166L17.8951 16.1695L18.1422 16.4166ZM37.23 13.491H55.3998V12.7922H37.23V13.491ZM77.4133 35.5044V53.6743H78.1121V35.5044H77.4133ZM55.3998 75.6877H37.23V76.3865H55.3998V75.6877ZM15.2166 53.6743V35.5044H14.5178V53.6743H15.2166ZM37.23 75.6877C31.9492 75.6877 28.0237 75.6869 25.0075 75.2814C22.0014 74.8773 19.951 74.0768 18.3892 72.5151L17.8951 73.0092C19.6083 74.7224 21.8308 75.5595 24.9144 75.974C27.988 76.3873 31.9689 76.3865 37.23 76.3865V75.6877ZM14.5178 53.6743C14.5178 58.9354 14.517 62.9163 14.9303 65.9899C15.3448 69.0735 16.1818 71.296 17.8951 73.0092L18.3892 72.5151C16.8275 70.9533 16.027 68.9029 15.6229 65.8968C15.2173 62.8806 15.2166 58.9551 15.2166 53.6743H14.5178ZM77.4133 53.6743C77.4133 58.9551 77.4125 62.8806 77.007 65.8968C76.6029 68.9029 75.8024 70.9533 74.2407 72.5151L74.7348 73.0092C76.448 71.296 77.285 69.0735 77.6996 65.9899C78.1129 62.9163 78.1121 58.9354 78.1121 53.6743H77.4133ZM55.3998 76.3865C60.6609 76.3865 64.6419 76.3873 67.7155 75.974C70.7991 75.5595 73.0216 74.7224 74.7348 73.0092L74.2407 72.5151C72.6789 74.0768 70.6285 74.8773 67.6223 75.2814C64.6062 75.6869 60.6807 75.6877 55.3998 75.6877V76.3865ZM55.3998 13.491C60.6807 13.491 64.6062 13.4918 67.6223 13.8973C70.6285 14.3014 72.6789 15.1019 74.2407 16.6636L74.7348 16.1695C73.0216 14.4563 70.7991 13.6192 67.7155 13.2047C64.6419 12.7914 60.6609 12.7922 55.3998 12.7922V13.491ZM78.1121 35.5044C78.1121 30.2434 78.1129 26.2624 77.6996 23.1888C77.285 20.1052 76.448 17.8827 74.7348 16.1695L74.2407 16.6636C75.8024 18.2254 76.6029 20.2758 77.007 23.2819C77.4125 26.2981 77.4133 30.2236 77.4133 35.5044H78.1121ZM37.23 12.7922C31.9689 12.7922 27.988 12.7914 24.9144 13.2047C21.8308 13.6192 19.6083 14.4563 17.8951 16.1695L18.3892 16.6636C19.951 15.1019 22.0014 14.3014 25.0075 13.8973C28.0237 13.4918 31.9492 13.491 37.23 13.491V12.7922ZM15.2166 35.5044C15.2166 30.2236 15.2173 26.2981 15.6229 23.2819C16.027 20.2758 16.8275 18.2254 18.3892 16.6636L17.8951 16.1695C16.1818 17.8827 15.3448 20.1052 14.9303 23.1888C14.517 26.2624 14.5178 30.2434 14.5178 35.5044H15.2166Z" fill="#D9D9D9"/>
</g>
<path d="M46.4478 47.5283C48.1491 47.5283 49.5283 46.1491 49.5283 44.4478C49.5283 42.7464 48.1491 41.3672 46.4478 41.3672C44.7464 41.3672 43.3672 42.7464 43.3672 44.4478C43.3672 46.1491 44.7464 47.5283 46.4478 47.5283Z" fill="#61DAFB"/>
<path d="M46.4478 50.759C55.577 50.759 62.9777 47.9333 62.9777 44.4476C62.9777 40.9619 55.577 38.1362 46.4478 38.1362C37.3186 38.1362 29.918 40.9619 29.918 44.4476C29.918 47.9333 37.3186 50.759 46.4478 50.759Z" stroke="#61DAFB" stroke-width="1.7471"/>
<path d="M40.9819 47.6032C45.5465 55.5093 51.694 60.5057 54.7127 58.7628C57.7314 57.02 56.4782 49.1979 51.9136 41.2918C47.349 33.3857 41.2015 28.3894 38.1828 30.1323C35.1642 31.8751 36.4174 39.6971 40.9819 47.6032Z" stroke="#61DAFB" stroke-width="1.7471"/>
<path d="M40.9819 41.292C36.4173 49.1981 35.1641 57.0201 38.1828 58.7629C41.2015 60.5058 47.3489 55.5095 51.9135 47.6034C56.4781 39.6973 57.7313 31.8752 54.7126 30.1324C51.6939 28.3895 45.5465 33.3859 40.9819 41.292Z" stroke="#61DAFB" stroke-width="1.7471"/>
<defs>
<filter id="filter0_d_80_1003" x="0.890409" y="0.5625" width="90.8491" height="90.8491" filterUnits="userSpaceOnUse" color-interpolation-filters="sRGB">
<feFlood flood-opacity="0" result="BackgroundImageFix"/>
<feColorMatrix in="SourceAlpha" type="matrix" values="0 0 0 0 0 0 0 0 0 0 0 0 0 0 0 0 0 0 127 0" result="hardAlpha"/>
<feOffset dy="1.39768"/>
<feGaussianBlur stdDeviation="6.98839"/>
<feComposite in2="hardAlpha" operator="out"/>
<feColorMatrix type="matrix" values="0 0 0 0 0.0367917 0 0 0 0 0.0348958 0 0 0 0 0.0484375 0 0 0 0.1 0"/>
<feBlend mode="normal" in2="BackgroundImageFix" result="effect1_dropShadow_80_1003"/>
<feBlend mode="normal" in="SourceGraphic" in2="effect1_dropShadow_80_1003" result="shape"/>
</filter>
</defs>
</svg>
