<svg width="40" height="40" viewBox="0 0 40 40" fill="none" xmlns="http://www.w3.org/2000/svg">
<path d="M32.4999 13.3333C34.8011 13.3333 36.6666 11.4679 36.6666 9.16667C36.6666 6.86548 34.8011 5 32.4999 5C30.1987 5 28.3333 6.86548 28.3333 9.16667C28.3333 11.4679 30.1987 13.3333 32.4999 13.3333Z" fill="#0F2137"/>
<path d="M32.4999 13.3333C34.8011 13.3333 36.6666 11.4679 36.6666 9.16667C36.6666 6.86548 34.8011 5 32.4999 5C30.1987 5 28.3333 6.86548 28.3333 9.16667C28.3333 11.4679 30.1987 13.3333 32.4999 13.3333Z" fill="#0F2137"/>
<path d="M34.5333 15.5168C33.3666 15.8835 32.0833 15.9502 30.7499 15.6168C28.5166 15.0335 26.6999 13.2502 26.0833 11.0168C25.7833 9.9335 25.7666 8.86683 25.9499 7.90016C26.1666 6.8335 25.4166 5.8335 24.3499 5.8335H11.6666C6.66659 5.8335 3.33325 8.3335 3.33325 14.1668V25.8335C3.33325 31.6668 6.66659 34.1668 11.6666 34.1668H28.3333C33.3333 34.1668 36.6666 31.6668 36.6666 25.8335V17.1002C36.6666 16.0002 35.5999 15.1668 34.5333 15.5168ZM25.8666 18.5835L23.8999 20.1502C22.7999 21.0335 21.3999 21.4668 19.9999 21.4668C18.5999 21.4668 17.1833 21.0335 16.0999 20.1502L10.8833 15.9835C10.3499 15.5502 10.2666 14.7502 10.6833 14.2168C11.1166 13.6835 11.8999 13.5835 12.4333 14.0168L17.6499 18.1835C18.9166 19.2002 21.0666 19.2002 22.3333 18.1835L24.2999 16.6168C24.8333 16.1835 25.6333 16.2668 26.0499 16.8168C26.4833 17.3502 26.3999 18.1502 25.8666 18.5835Z" fill="#0F2137"/>
</svg>
